<svg xmlns="http://www.w3.org/2000/svg" viewBox="0 0 100 150" class="w-full h-full">
  <defs>
    <linearGradient id="cardGradient" x1="0%" y1="0%" x2="100%" y2="100%">
      <stop offset="0%" style="stop-color:#1e1b4b;stop-opacity:1" />
      <stop offset="100%" style="stop-color:#312e81;stop-opacity:1" />
    </linearGradient>
    <linearGradient id="borderGradient" x1="0%" y1="0%" x2="100%" y2="100%">
      <stop offset="0%" style="stop-color:#7c3aed;stop-opacity:1" />
      <stop offset="100%" style="stop-color:#a855f7;stop-opacity:1" />
    </linearGradient>
  </defs>
  
  <!-- Card background -->
  <rect width="100" height="150" rx="8" fill="url(#cardGradient)" stroke="url(#borderGradient)" stroke-width="2"/>
  
  <!-- Inner border -->
  <rect x="8" y="8" width="84" height="134" rx="4" fill="none" stroke="url(#borderGradient)" stroke-width="1" opacity="0.5"/>
  
  <!-- Mystical symbols -->
  <circle cx="25" cy="25" r="3" fill="#7c3aed" opacity="0.6"/>
  <circle cx="75" cy="25" r="3" fill="#a855f7" opacity="0.6"/>
  <circle cx="25" cy="125" r="3" fill="#a855f7" opacity="0.6"/>
  <circle cx="75" cy="125" r="3" fill="#7c3aed" opacity="0.6"/>
  
  <!-- Center design -->
  <circle cx="50" cy="75" r="20" fill="none" stroke="#7c3aed" stroke-width="2" opacity="0.8"/>
  <circle cx="50" cy="75" r="12" fill="none" stroke="#a855f7" stroke-width="1" opacity="0.6"/>
  <circle cx="50" cy="75" r="4" fill="#ec4899" opacity="0.8"/>
  
  <!-- Corner flourishes -->
  <path d="M 15 40 Q 20 35 25 40 Q 20 45 15 40" fill="#7c3aed" opacity="0.4"/>
  <path d="M 75 40 Q 80 35 85 40 Q 80 45 75 40" fill="#7c3aed" opacity="0.4"/>
  <path d="M 15 110 Q 20 105 25 110 Q 20 115 15 110" fill="#7c3aed" opacity="0.4"/>
  <path d="M 75 110 Q 80 105 85 110 Q 80 115 75 110" fill="#7c3aed" opacity="0.4"/>
</svg>